<svg width="182" height="182" viewBox="0 0 182 182" fill="none" xmlns="http://www.w3.org/2000/svg">
<g clip-path="url(#clip0_10371_939)">
<path d="M74.3168 41.9464C77.2615 41.9464 79.6488 39.5591 79.6488 36.6144C79.6488 33.1366 80.3679 32.1601 81.8011 30.214C85.8057 24.7757 88.251 20.2308 88.251 13.1695C88.251 9.19046 86.9834 5.7574 85.879 3.21157C84.707 0.51005 81.5661 -0.730872 78.8657 0.442156C76.1642 1.61412 74.9243 4.75393 76.0959 7.45545C76.7901 9.05574 77.5871 11.1516 77.5871 13.1692C77.5871 17.6263 75.9487 20.1753 73.2142 23.8903C71.3299 26.4493 68.9852 29.6335 68.9852 36.6141C68.9849 39.5591 71.3722 41.9464 74.3168 41.9464Z" fill="white"/>
<path d="M99.0808 41.9463C102.025 41.9463 104.413 39.559 104.413 36.6144C104.413 33.1369 105.132 32.1601 106.565 30.2139C110.576 24.7668 113.015 20.2165 113.015 13.1694C113.015 9.19075 111.747 5.75804 110.643 3.21186C109.472 0.509981 106.331 -0.729874 103.63 0.441732C100.928 1.61369 99.6886 4.7535 100.86 7.45502C101.554 9.05567 102.351 11.1515 102.351 13.1691C102.351 17.6227 100.717 20.1692 97.9785 23.8906C96.0942 26.4492 93.7495 29.6334 93.7495 36.614C93.7488 39.559 96.1361 41.9463 99.0808 41.9463Z" fill="white"/>
<path d="M123.088 148.606L117.735 129.742C114.463 131.19 111.091 132.369 107.651 133.271L112.831 151.524C108.452 154.539 105.574 159.585 105.574 165.292C105.574 174.504 113.068 181.999 122.28 181.999C131.492 181.999 138.987 174.504 138.987 165.292C138.987 156.351 131.926 149.029 123.088 148.606Z" fill="white"/>
<path d="M90.9998 124.769C111.678 124.769 129.913 113.255 140.506 95.8495H41.4937C52.0865 113.255 70.3214 124.769 90.9998 124.769Z" fill="white"/>
<path d="M159.249 51.5439H22.7509C19.8063 51.5439 17.419 53.9312 17.419 56.8759C17.419 59.8205 19.8063 62.2078 22.7509 62.2078H31.8039C31.9685 70.3263 33.5396 78.0768 36.2632 85.1857H145.737C148.461 78.0768 150.031 70.3263 150.196 62.2078H159.249C162.193 62.2078 164.581 59.8205 164.581 56.8759C164.581 53.9312 162.193 51.5439 159.249 51.5439Z" fill="white"/>
<path d="M54.5328 175.429C53.7345 178.774 56.2707 182 59.7237 182C62.1348 182 64.3212 180.352 64.9056 177.904L75.4885 133.566C72.0263 132.724 68.6287 131.599 65.3272 130.205L54.5328 175.429Z" fill="white"/>
<path d="M85.6679 135.206V176.667C85.6679 179.612 88.0552 181.999 90.9998 181.999C93.9445 181.999 96.3318 179.612 96.3318 176.667V135.206C92.6406 135.508 89.3665 135.509 85.6679 135.206Z" fill="white"/>
</g>
<defs>
<clipPath id="clip0_10371_939">
<rect width="182" height="182" fill="white"/>
</clipPath>
</defs>
</svg>
