<svg width="123" height="18" viewBox="0 0 123 18" fill="none" xmlns="http://www.w3.org/2000/svg">
<path d="M0.522 1.22L4.284 14H6.912L9.414 4.838L11.916 14H14.508L18.27 1.22H15.534L13.212 10.454L10.674 1.22H8.208L5.67 10.454L3.33 1.22H0.522ZM18.2964 9.248C18.2964 12.11 20.4024 14.27 23.2284 14.27C26.1444 14.27 28.2324 12.074 28.2324 9.23C28.2324 6.35 26.1264 4.226 23.3004 4.226C20.4204 4.226 18.2964 6.422 18.2964 9.248ZM23.2644 6.494C24.7944 6.494 25.6584 7.844 25.6584 9.248C25.6584 10.67 24.7584 12.002 23.2644 12.002C21.7524 12.002 20.8704 10.634 20.8704 9.248C20.8704 7.826 21.7704 6.494 23.2644 6.494ZM29.8889 4.496V14H32.4089V9.338C32.4089 7.916 33.0389 6.89 34.5689 6.89C34.8569 6.89 35.1269 6.89 35.3969 7.016L35.6669 4.532C35.5409 4.478 35.3789 4.442 35.2169 4.406C35.0549 4.388 34.8749 4.37 34.7129 4.37C33.5969 4.37 32.7689 4.928 32.3009 5.936L32.2109 4.496H29.8889ZM37.0432 14H39.5632V0.571999H37.0432V14ZM45.5743 14.27C46.8523 14.27 47.9683 13.676 48.6703 12.614L48.7423 14H51.0643V0.571999H48.5443V5.558C47.8243 4.64 46.8703 4.226 45.7183 4.226C42.9283 4.226 41.2183 6.728 41.2183 9.302C41.2183 11.84 42.9103 14.27 45.5743 14.27ZM43.7923 9.248C43.7923 7.826 44.6923 6.494 46.1863 6.494C47.7163 6.494 48.5803 7.844 48.5803 9.248C48.5803 10.67 47.6803 12.002 46.1863 12.002C44.6743 12.002 43.7923 10.634 43.7923 9.248ZM56.9981 14H59.6441V9.482C60.0941 9.554 60.5261 9.59 60.9041 9.59C61.1741 9.59 61.4081 9.59 61.6421 9.572L63.9281 14H66.8801L63.9821 8.87C65.2961 8.186 66.1781 6.8 66.1781 5.324C66.1781 2.336 63.6941 1.22 61.1021 1.22H56.9981V14ZM59.6441 3.488H61.0481C62.3081 3.488 63.4601 3.992 63.4601 5.414C63.4601 6.836 62.3081 7.358 61.0481 7.358C60.5801 7.358 60.0941 7.322 59.6441 7.25V3.488ZM67.6031 9.23C67.6031 12.11 69.6011 14.27 72.4631 14.27C74.2451 14.27 76.0991 13.388 76.7831 11.678L74.5331 10.958C74.0651 11.714 73.3811 12.146 72.4811 12.146C71.1131 12.146 70.3571 11.138 70.1591 9.878H76.9811V9.248C76.9811 6.368 75.2351 4.226 72.3371 4.226C69.4931 4.226 67.6031 6.53 67.6031 9.23ZM72.3371 6.17C73.5431 6.17 74.2271 7.07 74.3891 8.186H70.1951C70.4111 7.07 71.1311 6.17 72.3371 6.17ZM78.273 9.32C78.273 12.11 80.271 14.27 83.043 14.27C85.059 14.27 86.877 13.154 87.399 11.156L85.005 10.688C84.681 11.516 83.943 12.002 83.061 12.002C81.567 12.002 80.847 10.598 80.847 9.284C80.847 7.952 81.567 6.494 83.061 6.494C83.943 6.494 84.573 7.016 84.915 7.808L87.309 7.34C86.805 5.36 85.095 4.226 83.115 4.226C80.235 4.226 78.273 6.584 78.273 9.32ZM88.9162 14H91.4362V4.496H88.9162V14ZM90.1762 3.362C91.0042 3.362 91.6162 2.732 91.6162 1.922C91.6162 1.076 91.0042 0.481999 90.1762 0.481999C89.3482 0.481999 88.7362 1.112 88.7362 1.922C88.7362 2.732 89.3842 3.362 90.1762 3.362ZM93.4514 4.496V17.492H95.9714V12.938C96.6554 13.82 97.6634 14.27 98.7794 14.27C101.569 14.27 103.297 11.768 103.297 9.194C103.297 6.62 101.623 4.226 98.9234 4.226C97.6634 4.226 96.5114 4.802 95.8454 5.882L95.7734 4.496H93.4514ZM98.3294 6.494C99.8594 6.494 100.723 7.844 100.723 9.248C100.723 10.67 99.8234 12.002 98.3294 12.002C96.8174 12.002 95.9354 10.634 95.9354 9.248C95.9354 7.826 96.8354 6.494 98.3294 6.494ZM104.675 9.23C104.675 12.11 106.673 14.27 109.535 14.27C111.317 14.27 113.171 13.388 113.855 11.678L111.605 10.958C111.137 11.714 110.453 12.146 109.553 12.146C108.185 12.146 107.429 11.138 107.231 9.878H114.053V9.248C114.053 6.368 112.307 4.226 109.409 4.226C106.565 4.226 104.675 6.53 104.675 9.23ZM109.409 6.17C110.615 6.17 111.299 7.07 111.461 8.186H107.267C107.483 7.07 108.203 6.17 109.409 6.17ZM115.147 11.624C115.633 13.424 117.415 14.27 119.143 14.27C121.087 14.27 122.995 13.19 122.995 11.084C122.995 9.248 121.447 8.456 119.845 8.168L119.341 8.078C118.837 7.988 117.793 7.772 117.793 7.088C117.793 6.422 118.495 6.134 119.071 6.134C119.845 6.134 120.349 6.584 120.601 7.286L122.851 6.818C122.437 5.036 120.781 4.226 119.089 4.226C117.199 4.226 115.417 5.27 115.417 7.304C115.417 9.122 116.983 9.914 118.567 10.184L119.071 10.274C119.665 10.364 120.583 10.58 120.583 11.336C120.583 12.092 119.809 12.344 119.179 12.344C118.369 12.344 117.685 11.93 117.415 11.138L115.147 11.624Z" fill="white"/>
</svg>
